HIERARCHY
ROOT Hips
{
	OFFSET 0.000000 0.000000 0.000000
	CHANNELS 6 Xposition Yposition Zposition Zrotation Yrotation Xrotation 
	JOINT LHipJoint
	{
		OFFSET 0.000000 0.000000 0.000000
		CHANNELS 3 Zrotation Yrotation Xrotation
		JOINT LeftUpLeg
		{
			OFFSET 1.363060 -1.794630 0.839290
			CHANNELS 3 Zrotation Yrotation Xrotation
			JOINT LeftLeg
			{
				OFFSET 2.448110 -6.726130 0.000000
				CHANNELS 3 Zrotation Yrotation Xrotation
				JOINT LeftFoot
				{
					OFFSET 2.562200 -7.039590 0.000000
					CHANNELS 3 Zrotation Yrotation Xrotation
					JOINT LeftToeBase
					{
						OFFSET 0.157640 -0.433110 2.322550
						CHANNELS 3 Zrotation Yrotation Xrotation
						End Site
						{
							OFFSET 0.000000 0.000000 0.000000
						}
					}
				}
			}
		}
	}
	JOINT RHipJoint
	{
		OFFSET 0.000000 0.000000 0.000000
		CHANNELS 3 Zrotation Yrotation Xrotation
		JOINT RightUpLeg
		{
			OFFSET -1.305520 -1.794630 0.839290
			CHANNELS 3 Zrotation Yrotation Xrotation
			JOINT RightLeg
			{
				OFFSET -2.542530 -6.985550 0.000000
				CHANNELS 3 Zrotation Yrotation Xrotation
				JOINT RightFoot
				{
					OFFSET -2.568260 -7.056230 0.000000
					CHANNELS 3 Zrotation Yrotation Xrotation
					JOINT RightToeBase
					{
						OFFSET -0.164730 -0.452590 2.363150
						CHANNELS 3 Zrotation Yrotation Xrotation
						End Site
						{
							OFFSET 0.000000 0.000000 0.000000
						}
					}
				}
			}
		}
	}
	JOINT LowerBack
	{
		OFFSET 0.000000 0.000000 0.000000
		CHANNELS 3 Zrotation Yrotation Xrotation
		JOINT Spine
		{
			OFFSET 0.028270 2.035590 -0.193380
			CHANNELS 3 Zrotation Yrotation Xrotation
			JOINT Spine1
			{
				OFFSET 0.056720 2.048850 -0.042750
				CHANNELS 3 Zrotation Yrotation Xrotation
				JOINT Neck
				{
					OFFSET 0.000000 0.000000 0.000000
					CHANNELS 3 Zrotation Yrotation Xrotation
					JOINT Neck1
					{
						OFFSET -0.054170 1.746240 0.172020
						CHANNELS 3 Zrotation Yrotation Xrotation
						JOINT Head
						{
							OFFSET 0.104070 1.761360 -0.123970
							CHANNELS 3 Zrotation Yrotation Xrotation
							End Site
							{
								OFFSET 0.000000 0.000000 0.000000
							}
						}
					}
				}
				JOINT LeftShoulder
				{
					OFFSET 0.000000 0.000000 0.000000
					CHANNELS 3 Zrotation Yrotation Xrotation
					JOINT LeftArm
					{
						OFFSET 3.362410 1.200890 -0.311210
						CHANNELS 3 Zrotation Yrotation Xrotation
						JOINT LeftForeArm
						{
							OFFSET 4.983000 -0.000000 -0.000000
							CHANNELS 3 Zrotation Yrotation Xrotation
							JOINT LeftHand
							{
								OFFSET 3.483560 -0.000000 -0.000000
								CHANNELS 3 Zrotation Yrotation Xrotation
								JOINT LeftFingerBase
								{
									OFFSET 0.000000 0.000000 0.000000
									CHANNELS 3 Zrotation Yrotation Xrotation
									JOINT LeftHandIndex1
									{
										OFFSET 0.715260 -0.000000 -0.000000
										CHANNELS 3 Zrotation Yrotation Xrotation
										End Site
										{
											OFFSET 0.000000 0.000000 0.000000
										}
									}
								}
								JOINT LThumb
								{
									OFFSET 0.000000 0.000000 0.000000
									CHANNELS 3 Zrotation Yrotation Xrotation
									End Site
									{
										OFFSET 0.000000 0.000000 0.000000
									}
								}
							}
						}
					}
				}
				JOINT RightShoulder
				{
					OFFSET 0.000000 0.000000 0.000000
					CHANNELS 3 Zrotation Yrotation Xrotation
					JOINT RightArm
					{
						OFFSET -3.136600 1.374050 -0.404650
						CHANNELS 3 Zrotation Yrotation Xrotation
						JOINT RightForeArm
						{
							OFFSET -5.241900 -0.000000 -0.000000
							CHANNELS 3 Zrotation Yrotation Xrotation
							JOINT RightHand
							{
								OFFSET -3.444170 -0.000000 -0.000000
								CHANNELS 3 Zrotation Yrotation Xrotation
								JOINT RightFingerBase
								{
									OFFSET 0.000000 0.000000 0.000000
									CHANNELS 3 Zrotation Yrotation Xrotation
									JOINT RightHandIndex1
									{
										OFFSET -0.622530 -0.000000 -0.000000
										CHANNELS 3 Zrotation Yrotation Xrotation
										End Site
										{
											OFFSET 0.000000 0.000000 0.000000
										}
									}
								}
								JOINT RThumb
								{
									OFFSET 0.000000 0.000000 0.000000
									CHANNELS 3 Zrotation Yrotation Xrotation
									End Site
									{
										OFFSET 0.000000 0.000000 0.000000
									}
								}
							}
						}
					}
				}
			}
		}
	}
}
MOTION
Frames: 6
Frame Time: 0.008333
7.484508 16.595906 4.079783 16.846861 -87.980000 -4.188434 -9.309866 2.188904 4.818232 -13.374150 2.158123 -42.457984 -2.837979 0.424452 19.784570 0.598053 3.004922 -0.027867 0.787600 0.000000 -32.355600 11.428444 -3.174131 -0.684801 -0.446505 -18.938525 -11.917532 -0.341021 -2.293310 43.478748 -0.562724 1.394693 15.235441 0.711899 0.000000 -103.481000 -3.972524 -1.243785 -6.218475 -1.399585 -1.125668 -4.058325 -6.004267 -1.135726 -0.074165 13.029531 -12.365232 -9.589644 -2.552305 -0.170739 -0.531198 0.000000 0.000000 0.000000 1.472966 13.738157 0.448584 -57.491388 -1.581254 -9.761055 -178.584803 -68.681751 179.972360 1.626933 15.527069 0.236068 -0.106063 0.083338 0.000000 0.000000 0.000000 0.000000 0.000000 0.000000 0.000000 9.963481 -3.979600 -0.409353 62.100206 9.794898 9.295748 179.751913 86.804973 -179.998592 -1.007138 6.829782 -0.064649 0.042556 -0.499575 0.000000 0.000000 0.000000 0.000000 0.000000 0.000000 0.000000 
7.353458 16.539513 4.071897 22.669519 -87.856300 -9.788422 -9.114137 2.293268 4.830522 -13.707251 1.694809 -43.728418 -2.737605 0.703350 22.833103 0.692304 3.355252 -0.765713 0.779500 -0.000000 -29.812100 11.731150 -2.978272 -0.609674 -0.911028 -18.890706 -13.509494 -0.552000 -2.396266 46.460213 -0.693891 1.285733 16.449279 0.781600 0.000000 -102.130999 -4.777824 -1.413828 -6.326608 -1.574444 -1.228290 -4.069951 -6.064811 -1.238113 -0.064697 13.396102 -12.348491 -9.574907 -2.579900 -0.172287 -0.536794 0.000000 0.000000 0.000000 1.687856 13.596863 0.435996 -57.964259 -2.082046 -10.608528 -178.634154 -69.018805 179.970788 1.898621 15.777439 0.277558 -0.108350 0.086621 0.000000 0.000000 0.000000 0.000000 0.000000 0.000000 0.000000 10.428241 -4.094430 -0.407029 62.666626 10.144891 9.229198 179.785032 87.199707 -179.997649 -0.862491 6.795322 -0.054937 0.039961 -0.499524 0.000000 0.000000 0.000000 0.000000 0.000000 0.000000 0.000000 
7.228300 16.490688 4.064967 28.199677 -87.811628 -15.114089 -8.929646 2.370111 4.817742 -14.014648 1.355210 -44.798149 -2.647149 0.934377 25.542767 0.794755 3.718116 -1.726155 0.744600 0.000000 -28.081001 12.006827 -2.769118 -0.531800 -1.301602 -18.744760 -15.155344 -0.751364 -2.500950 49.429942 -0.849326 0.931839 17.636370 0.748600 0.000000 -100.141000 -5.503592 -1.547131 -6.407932 -1.735323 -1.298912 -4.079447 -6.118080 -1.307100 -0.067398 13.684381 -12.302271 -9.535162 -2.603164 -0.173801 -0.535420 0.000000 0.000000 0.000000 1.849769 13.444752 0.423346 -58.476244 -2.705054 -11.483677 -178.692763 -69.478830 179.968723 2.224011 16.091846 0.329245 -0.111528 0.089613 0.000000 0.000000 0.000000 0.000000 0.000000 0.000000 0.000000 10.790950 -4.179189 -0.412268 63.328912 10.498221 9.114113 179.822297 87.642032 -179.996465 -0.647304 6.698277 -0.040354 0.034916 -0.498556 0.000000 0.000000 0.000000 0.000000 0.000000 0.000000 0.000000 
7.109132 16.450112 4.060602 33.246573 -87.860464 -19.987052 -8.769169 2.415804 4.777394 -14.257186 1.165385 -45.659826 -2.569052 1.118601 27.901300 0.901645 4.068108 -2.875230 0.676900 0.000000 -27.207500 12.243052 -2.559238 -0.456076 -1.576541 -18.517880 -16.823850 -0.933388 -2.609927 52.335749 -1.023773 0.289810 18.689788 0.574700 -0.000000 -97.669700 -6.103698 -1.638054 -6.456961 -1.871230 -1.336609 -4.085764 -6.163319 -1.342230 -0.080447 13.887265 -12.224155 -9.474209 -2.622068 -0.175241 -0.527702 0.000000 0.000000 0.000000 1.939756 13.302811 0.410647 -59.020654 -3.470817 -12.365658 -178.757876 -70.056008 179.966091 2.611646 16.446249 0.392834 -0.115867 0.092862 0.000000 0.000000 0.000000 0.000000 0.000000 0.000000 0.000000 11.045256 -4.228288 -0.424020 64.047661 10.863354 8.958580 179.861095 88.113840 -179.995001 -0.357436 6.537183 -0.021101 0.027364 -0.496636 0.000000 0.000000 0.000000 0.000000 0.000000 0.000000 0.000000 
6.994817 16.417915 4.058599 38.529068 -87.989948 -25.113483 -8.614271 2.441339 4.722141 -14.459371 1.084683 -46.319544 -2.507673 1.255331 29.895420 1.014690 4.424745 -4.144381 0.582400 0.000001 -27.054200 12.460786 -2.350721 -0.380697 -1.768397 -18.261324 -18.536997 -1.095554 -2.728357 55.161358 -1.209441 -0.621432 19.506643 0.254000 0.000001 -94.727200 -6.585347 -1.693144 -6.493982 -1.984064 -1.348043 -4.095557 -6.202646 -1.350351 -0.113729 14.008674 -12.111792 -9.386474 -2.640315 -0.177068 -0.511602 0.000000 0.000000 0.000000 1.959576 13.113920 0.400275 -59.555407 -4.280560 -13.287452 -178.827278 -70.671921 179.962915 3.069172 16.827714 0.470023 -0.121222 0.095929 0.000000 0.000000 0.000000 0.000000 0.000000 0.000000 0.000000 11.206119 -4.235508 -0.434774 64.791872 11.233056 8.777217 179.898124 88.591113 -179.994069 0.010681 6.307989 0.002026 0.017573 -0.493818 0.000000 0.000000 0.000000 0.000000 0.000000 0.000000 0.000000 
6.885919 16.394154 4.061292 43.357039 -88.221705 -29.830655 -8.499781 2.432339 4.641023 -14.547810 1.167281 -46.784428 -2.455795 1.351961 31.558249 1.124325 4.738335 -5.469943 0.459100 0.000000 -27.593300 12.627677 -2.163994 -0.315463 -1.797412 -17.973147 -20.226107 -1.238120 -2.856025 57.832695 -1.402770 -1.840907 20.004512 -0.236200 0.000000 -91.716900 -6.888378 -1.707433 -6.495748 -2.059272 -1.333724 -4.101587 -6.234062 -1.332249 -0.156032 14.045648 -11.967017 -9.285342 -2.655799 -0.178878 -0.490700 0.000000 0.000000 0.000000 1.894056 12.948986 0.390916 -60.091198 -5.224297 -14.181126 -178.897412 -71.354975 179.959184 3.588302 17.192004 0.559118 -0.127671 0.100168 0.000000 0.000000 0.000000 0.000000 0.000000 0.000000 0.000000 11.266495 -4.201920 -0.447654 65.508993 11.631329 8.580880 179.933323 89.057904 -179.991033 0.438061 6.028316 0.026928 0.005850 -0.490288 0.000000 0.000000 0.000000 0.000000 0.000000 0.000000 0.000000 
